<svg width="33" height="30" viewBox="0 0 33 30" fill="none" xmlns="http://www.w3.org/2000/svg">
<path d="M32.2963 17.7899C32.1641 17.5856 31.9492 17.4491 31.7079 17.4166C28.5344 17.002 26.2978 14.0934 26.7123 10.9199C27.0052 8.67821 28.5748 6.8115 30.733 6.13831C31.1713 5.99784 31.4128 5.5287 31.2723 5.09042C31.2504 5.02222 31.2199 4.95707 31.1814 4.8966C29.7251 2.26834 27.1356 0.460777 24.1664 0C22.6702 0.0714056 21.1957 0.387262 19.8015 0.934991C18.8001 1.33796 17.7428 1.58475 16.6665 1.66663C15.5902 1.58475 14.5328 1.33796 13.5315 0.934991C12.1373 0.387262 10.6628 0.0714056 9.16656 0C6.05495 0 0 4.4116 0 12.4999C0 20.1865 5.60659 29.9997 9.99991 29.9997C11.6762 30.0147 13.3324 29.6333 14.8332 28.8864C15.3985 28.5747 16.0232 28.3861 16.6666 28.333C17.3099 28.3861 17.9347 28.5747 18.4999 28.8864C20.0008 29.6333 21.6569 30.0147 23.3332 29.9997C26.8166 29.9997 30.7482 24.0198 32.3948 18.4782C32.4637 18.2455 32.4278 17.9941 32.2963 17.7899Z" fill="#37474F"/>
</svg>
